<svg id="Layer_2" data-name="Layer 2" xmlns="http://www.w3.org/2000/svg" xmlns:xlink="http://www.w3.org/1999/xlink" viewBox="0 0 800 800"><defs><style>.cls-1{fill:none;}.cls-2,.cls-3{fill:#d3a355;}.cls-3{fill-rule:evenodd;}.cls-4{clip-path:url(#clip-path);}</style><clipPath id="clip-path"><rect class="cls-1" y="-831.32" width="800" height="800"/></clipPath></defs><path class="cls-2" d="M393.73,468.56l.5,132.94h-31.6l-.49-132.94h6.5l.5,126.44h18.69V475.56h-6.61V589.42h-6.51l-.49-120.86Z"/><path class="cls-2" d="M448.76,601.5V582h18.79a17,17,0,0,0,12.59-5.27,17.31,17.31,0,0,0,5.27-12.7V511.16h-5.58V564a11.61,11.61,0,0,1-3.61,8.68,11.82,11.82,0,0,1-8.67,3.61H448.44v-6.4h19.11a5.66,5.66,0,0,0,4.13-1.76,5.59,5.59,0,0,0,1.65-4.13V504.76h18.59V564a24.33,24.33,0,0,1-24.37,24.37H455.16V595h12.39a31,31,0,0,0,31-31v-88.9H462a31,31,0,0,0-31,31v14.77a29.48,29.48,0,0,0,9.08,21.78A29.83,29.83,0,0,0,462,551.74h2.69V533.15H462a11.6,11.6,0,0,1-8.67-3.61,11.82,11.82,0,0,1-3.61-8.67V506.1a11.82,11.82,0,0,1,3.61-8.67,11.61,11.61,0,0,1,8.67-3.62h26.64v-5.57H460.94a17.19,17.19,0,0,0-12.6,5.26,17,17,0,0,0-5.26,12.6v15.69a17,17,0,0,0,5.26,12.6,17.2,17.2,0,0,0,12.6,5.27h1.44v6.5h-1.44a24.33,24.33,0,0,1-24.37-24.37V506.1a24.34,24.34,0,0,1,24.37-24.37h34.17v18.59H462a5.8,5.8,0,0,0-5.88,5.78v14.77a5.3,5.3,0,0,0,1.75,4,5.44,5.44,0,0,0,4.13,1.76h9.19v31.59H462a37.37,37.37,0,0,1-37.48-37.37V506.1A37.56,37.56,0,0,1,462,468.62H505V564a37.54,37.54,0,0,1-37.48,37.48Z"/><path class="cls-2" d="M268.87,416.23a37.54,37.54,0,0,1,37.48-37.48h95.4v43.06a37.54,37.54,0,0,1-37.48,37.48H349.51a37.35,37.35,0,0,1-37.38-37.48v-9.19h31.59v9.19a5.44,5.44,0,0,0,1.76,4.13,5.32,5.32,0,0,0,4,1.76h14.76a5.82,5.82,0,0,0,5.78-5.89V388.67h18.59v34.17a23.73,23.73,0,0,1-7.13,17.25,23.47,23.47,0,0,1-17.24,7.12H348.58a24.31,24.31,0,0,1-24.37-24.37V421.4h6.5v1.44a17.2,17.2,0,0,0,5.27,12.6,17,17,0,0,0,12.6,5.26h15.69a17,17,0,0,0,12.6-5.26,17.19,17.19,0,0,0,5.26-12.6V395.17h-5.57v26.64a11.61,11.61,0,0,1-3.62,8.67,11.83,11.83,0,0,1-8.67,3.62H349.51a11.84,11.84,0,0,1-8.68-3.62,11.6,11.6,0,0,1-3.61-8.67v-2.69H318.63v2.69a29.83,29.83,0,0,0,9.09,21.89,29.49,29.49,0,0,0,21.79,9.08h14.76a31,31,0,0,0,31-31V385.26h-88.9a31,31,0,0,0-31,31V594.6H282V416.23a24.31,24.31,0,0,1,24.37-24.36h59.26v18.58H306.35a5.59,5.59,0,0,0-4.13,1.65,5.66,5.66,0,0,0-1.76,4.13V601.31h-6.4V416.23a11.82,11.82,0,0,1,3.61-8.67,11.62,11.62,0,0,1,8.68-3.61h52.86v-5.58H306.35a17.31,17.31,0,0,0-12.7,5.27,17,17,0,0,0-5.27,12.59V601H268.87Z"/><path class="cls-2" d="M505.56,461.24H487V412.71a18.85,18.85,0,0,0-18.79-18.89H451.66a23.16,23.16,0,0,1-19.82-10.22l5.26-3.82a17,17,0,0,0,14.56,7.53h16.52a25.38,25.38,0,0,1,25.3,25.4v42h5.58v-42A29.88,29.88,0,0,0,490,390.82a29.52,29.52,0,0,0-21.79-9.08H451.66q-7.23,0-10.94-8.06l-3.93,1.66c-1.72.69-3.3,1.37-4.75,2.06q-5.78,2.39-9.08,3.82a30.83,30.83,0,0,0,11.36,13.94,30.46,30.46,0,0,0,17.34,5.27h16.52a11.86,11.86,0,0,1,8.68,3.61,11.64,11.64,0,0,1,3.61,8.67v23.34H419.55v18.69h48.63a5.73,5.73,0,0,0,4-1.65,5.51,5.51,0,0,0,1.75-3.93H423.27v-6.5h57.2V449a12.33,12.33,0,0,1-12.29,12.29H413.05V429.65H474V412.71a5.8,5.8,0,0,0-5.78-5.78H451.66a37.36,37.36,0,0,1-35.83-26.53l-.82-2.69,2.58-1.24q2.9-1.34,13.32-5.68,3.3-1.44,7.12-3c.76-.27,1.52-.59,2.27-.93l.42-.21.31-.1.2-.1h.21l3.2-1.35,1.14,3.41c.75,2.69,1.72,4.54,2.89,5.58a4.24,4.24,0,0,0,3,1.13h16.52a37.39,37.39,0,0,1,37.38,37.48Z"/><path class="cls-3" d="M402.83,207.61c43.4,35.78,58.73,62.28,63.61,84,5.57,24.81,3.95,38.11,3.95,38.11l-21.57,9.71c4.28-35.64-11.51-64.58-46.23-91.79q-29.28,23.83-33,68.66-24.51,1.88-38.17-1.39Q348.23,245.43,402.83,207.61Z"/><path class="cls-3" d="M375,198.47q-75.42,54-89.22,141.57,55.19,29.9,128.48,8.27s-4.17-28.23-12.5-84.69a127,127,0,0,0-20.28,57.51q-32,9.3-61.72.06Q331.17,244.66,394,201.55l-4-2.86L386.67,181l-2-10.4a17,17,0,0,0,14.8-16.89c0-.56,0-1.1-.08-1.64a13.91,13.91,0,1,1-15.32-15.32c-.54-.05-1.09-.08-1.64-.08a17,17,0,0,0-2.25,33.93l-2,10.4Z"/><g class="cls-4"><image width="2284" height="3426" transform="translate(0 -831.32) scale(0.35)" xlink:href="C:%5CUsers%5Cmstfn%5CDownloads%5Cmosquegrapher-uouvblwaQs4-unsplash%20(1).jpg"/></g></svg>